<svg xmlns="http://www.w3.org/2000/svg" width="64" height="64" viewBox="0 0 64 64" fill="none">
  <rect width="64" height="64" rx="8" fill="#2563EB"/>
  <path d="M18 18H46V46H18V18Z" fill="white" fill-opacity="0.2"/>
  <path d="M46 32C46 39.732 39.732 46 32 46C24.268 46 18 39.732 18 32C18 24.268 24.268 18 32 18C39.732 18 46 24.268 46 32Z" fill="white"/>
  <path d="M35.4142 28.5858C36.1953 29.3668 36.1953 30.6332 35.4142 31.4142L31.4142 35.4142C30.6332 36.1953 29.3668 36.1953 28.5858 35.4142C27.8047 34.6332 27.8047 33.3668 28.5858 32.5858L32.5858 28.5858C33.3668 27.8047 34.6332 27.8047 35.4142 28.5858Z" fill="#2563EB"/>
  <path d="M28.5858 28.5858C29.3668 27.8047 30.6332 27.8047 31.4142 28.5858L35.4142 32.5858C36.1953 33.3668 36.1953 34.6332 35.4142 35.4142C34.6332 36.1953 33.3668 36.1953 32.5858 35.4142L28.5858 31.4142C27.8047 30.6332 27.8047 29.3668 28.5858 28.5858Z" fill="#2563EB"/>
  <path d="M22 48L42 48" stroke="white" stroke-width="4" stroke-linecap="round"/>
  <path d="M32 40V48" stroke="white" stroke-width="4" stroke-linecap="round"/>
</svg> 